<?xml version="1.0" encoding="UTF-8" standalone="no"?>
<!-- Generator: Adobe Illustrator 24.1.2, SVG Export Plug-In . SVG Version: 6.00 Build 0)  -->

<svg
  version="1.1"
  x="0px"
  y="0px"
  viewBox="0 0 1366 768"
  style="enable-background:new 0 0 1366 768;"
  xml:space="preserve"
  id="svg113"
  xmlns:sodipodi="http://sodipodi.sourceforge.net/DTD/sodipodi-0.dtd"
  xmlns:xlink="http://www.w3.org/1999/xlink"
  xmlns="http://www.w3.org/2000/svg"
  xmlns:svg="http://www.w3.org/2000/svg" xmlns:xsi="http://www.w3.org/2001/XMLSchema-instance"
  xsi:schemaLocation="http://sodipodi.sourceforge.net/DTD/sodipodi-0.dtd ">
  <style
    type="text/css"
    id="style2">
	.st0{display:none;}
	.st1{fill:#5CCDD9;}
	.st2{fill:#CE9E43;}
	.st3{fill:#C7475A;}
	.st4{fill:#A29FDD;}
	.st5{fill:#D96E44;}
	.st6{fill:#DDD9CA;}
	.st7{fill:#99DDAB;}
	.st8{display:inline;}
	.st9{fill:#FEFEFE;}
	.st10{fill:#C5495B;}
	.st11{fill:#538D85;}
	.st12{fill:#A2A0DC;}
	.st13{fill:#FFFFFF;}
</style>
  <g
    id="Camada_1"
    class="st0">

		<image
      style="display:inline;overflow:visible;"
      width="834"
      height="834"
      xlink:href="logo_temp.png"
      transform="matrix(0.9053 0 0 0.9053 322 5)"
      id="image4">
	</image>
</g>
  <g
    id="Camada_1_cópia_3">
	<g
    id="g43">
		<path
      class="st1"
      d="m 600.41,113.67 c 10.95,-3.64 22.09,-6.62 32.92,-10.73 10.33,-3.92 21.17,-6.47 31.64,-10.07 13.65,-4.69 27.58,-7.58 41.93,-9.25 16.43,-1.92 32.58,-1.22 48.93,0.82 12.17,1.52 24,4.5 35.57,7.9 11.26,3.31 22.18,8.22 32.59,14.15 8.42,4.8 16.83,9.65 24.58,15.34 15.9,11.68 30.18,25.11 42.05,41.09 5.77,7.76 11.84,15.32 16.56,23.74 11.18,19.95 20,40.9 25.57,63.16 4.04,16.17 7.24,32.47 9.07,49.05 1.61,14.54 3.1184,29.08166 3.77,43.7 1.59211,35.71815 2.10096,74.20305 1.42,106.76 -0.68,32.86 -0.51,65.7 -0.73,98.55 -0.11,16.74 1.42,33.45 0.95,50.19 -0.06,2.07 -0.17,3.32 -2.65,4.21 -27.07,9.79 -54.65,22.08 -81.82,31.56 -0.41,0.14 -0.9,0.09 -1.34,0.13 -0.13,-1.64 -0.3,-3.28 -0.37,-4.92 -0.87,-21.24 -1.72,-46.48 -2.58,-67.72 0.57,-28.59 -0.03,-57.18 0.76,-85.78 0.79,-28.27 0.5,-56.58 -0.65,-84.87 -0.22,-5.4 -0.45,-10.8 -0.68,-16.19 -0.84,-20.1 -2.65,-40.07 -5.55,-59.98 -2.77,-19.07 -6.97,-37.79 -13.24,-55.96 -8.84,-25.62 -21.5,-49.17 -38.83,-70.23 C 781.1,165 758.31,146.3 731.45,132.63 712.75,123.11 693,116.8 672.23,113.26 c -15.41,-2.63 -30.8401,-2.75551 -46.28,-2.32 -8.55843,0.24141 -21.5964,1.95419 -25.54,2.73 z"
      id="path7"/>
    <path
      class="st2"
      d="m 772.7,669.79 c -77.75948,-34.78383 -130.68837,-58.3939 -212.54,-94.84 -18.93265,-8.43015 -37.25,-18.16 -55.19,-28.63 -14.59,-8.52 -28.79,-17.55 -42.19,-27.82 -16.9,-12.96 -32.21,-27.48 -45.37,-44.35 -15.5,-19.87 -27.52,-41.51 -35.43,-65.39 -4.99,-15.07 -8.47,-30.46 -10.01,-46.37 -1.25,-12.96 -1.62,-25.94 -0.49,-38.78 3.18,-35.95 14.87,-69.1 36.3,-98.31 10.29,-14.03 22.32,-26.54 36.41,-37.14 10.86,-8.17 22.5,-14.77 34.45,-20.99 3.78,-1.97 8.25,-2.38 11.86,-4.86 0.81,0.12 1.51,-0.01 1.91,-0.83 l -0.04,0.01 c 1.87,0.31 3.53,-0.46 5.24,-0.98 7.55,-2.3 14.95,-5.14 22.84,-6.17 -10.95,11.9 -22.81,22.92 -31.89,36.58 -9.63,14.49 -17.55,29.77 -22.82,46.22 -5.02,15.66 -8.58,31.68 -9.74,48.3 -1.08,15.53 -0.76,30.91 1.49,46.19 2.96,20.09 8.87,39.37 17.29,57.94 9.84,21.68 22.91,41.16 39.03,58.54 13.91,15 29.48,28.11 46.47,39.65 15.78,10.72 32.06,20.55 48.89,29.44 14.6,7.71 29.52,14.81 44.46,21.83 12.5,5.87 25.21,11.3 37.87,16.81 28.8637,9.06052 68.58271,30.11658 82.85,35.23 0.04,25.04 0.05,50.08 0.08,75.12 0.02,1.46 0.36,3.13 -1.73,3.6 z"
      id="path9"/>
    <path
      class="st3"
      d="m 772.7,669.79 c 2.08,-0.47 1.75,-2.14 1.75,-3.59 -0.03,-25.04 -0.06,-50.09 -0.1,-75.13 0.04,-2.55 0.12,-5.1 0.13,-7.66 0.07,-19.22 -0.01,-39.23 0.05,-58.46 6.24,2.59 12.66,5.9 18.87,8.56 21.7,9.26 43.37,18.56 65.06,27.85 0.86,21.24 1.71,46.48 2.58,67.72 0.07,1.64 0.25,3.28 0.37,4.92 -30.1419,12.11219 -53.95407,21.67999 -79.88,33.41 -2.75,1.24 -5.33,3.67 -8.83,2.38 z"
      id="path11"/>
    <path
      class="st3"
      d="m 520.46,154.35 c -7.89,1.02 -15.29,3.87 -22.84,6.17 -1.71,0.52 -3.37,1.29 -5.24,0.98 11.78,-6.82 24.35,-12.04 36.59,-17.92 14.55,-6.98 28.83,-14.58 43.91,-20.39 9.05,-3.49 18.35,-6.36 27.53,-9.51 2.94124,-0.57429 6.49559,-1.02193 9.53585,-1.4084 6.31256,-0.80243 12.14287,-1.26572 18.48524,-1.40711 -6.19,4.34 -14.15109,9.75551 -19.36109,14.45551 -9.23,8.33 -18.44,16.68 -25.52,27.04 l -1.11,0.42 c -3.5,-2.03 -7.38,-0.85 -11.07,-1.27 -17.13,-1.93 -34.09,-0.82 -50.91,2.84 z"
      id="path13"/>
    <path
      class="st3"
      d="m 492.42,161.48 c -0.4,0.82 -1.1,0.95 -1.91,0.83 0.37,-0.89 1.22,-0.68 1.91,-0.83 z"
      id="path15"/>
    <path
      class="st4"
      d="m 583.66834,152.24198 c 7.08,-10.36 16.29,-18.71 25.52,-27.04 5.21,-4.7 10.98478,-8.53255 17.17478,-12.87255 l 2.06797,-1.46494 c 3.4803,-0.0925 9.37195,-0.15428 14.05103,-0.0968 9.96881,0.12244 19.91922,0.72556 29.86622,2.4243 20.76,3.54 40.52,9.85 59.22,19.37 26.86,13.67 49.65,32.36 68.83,55.69 17.33,21.07 29.99,44.61 38.83,70.23 6.27,18.17 10.46,36.9 13.24,55.96 2.9,19.91 4.71,39.88 5.55,59.98 0.22,5.39 0.46,10.79 0.68,16.19 1.16,28.28 1.44,56.6 0.65,84.87 -0.8,28.6 -0.31834,57.28801 -0.88834,85.87801 -30.84537,-13.54208 -61.03578,-25.35113 -83.93,-36.41 0.45037,-37.67064 1.00663,-73.04038 -0.56166,-107.64801 -0.83,-17.37 -2.01,-34.67 -4.08,-51.93 0.05,-0.2 0.1,-0.4 0.13,-0.61 26.28,-9.52 43.64,-28.12 52.17,-54.21 10.65,-32.56 4.97,-63.26 -15.37,-90.62 -20.12,-27.06 -47.4,-40.96 -81.49,-40.47 -16.07,0.23 -30.68,5.34 -44.3,13.63 -9.29,-5.46 -17.84,-12.03 -27.33,-17.25 -21.98,-12.07 -45.37,-19.65 -70.03,-23.6 z"
      id="path17"/>

    <path
      class="st5"
      d="m 774.53,524.95 c 0.23901,20.22884 0.0133,41.07418 -0.05,58.46 -0.01,2.55 -0.08,5.1 -0.13,7.66 -28.10023,-10.63395 -57.87252,-24.33508 -82.83,-35.22 -12.66,-5.52 -25.38,-10.94 -37.87,-16.81 -14.94,-7.02 -29.87,-14.13 -44.46,-21.83 -16.83,-8.88 -33.11,-18.72 -48.89,-29.44 -16.99,-11.54 -32.56,-24.65 -46.47,-39.65 -16.12,-17.38 -29.19,-36.86 -39.03,-58.54 -8.42,-18.57 -14.33,-37.85 -17.29,-57.94 -2.25,-15.28 -2.56,-30.66 -1.49,-46.19 1.15,-16.62 4.72,-32.64 9.74,-48.3 5.27,-16.45 13.19,-31.73 22.82,-46.22 9.08,-13.66 20.94,-24.67 31.89,-36.58 16.82,-3.66 33.78,-4.76 50.91,-2.85 3.69,0.41 7.57,-0.76 11.07,1.27 -8.96,12.84 -17.47,25.94 -23.55,40.48 -7.4,17.72 -12.73,35.96 -14.54,55.13 -0.18,0.29 -0.36,0.59 -0.53,0.88 -1.5,0.05 -3.06,-0.14 -4.49,0.2 -28.1,6.62 -48.9,22.36 -61.48,48.72 -11.05,23.17 -11.81,47.04 -3.9,70.88 9.8,29.53 29.1,51.1 58.2,63.15 17.95,7.43 36.54,8.92 55.56,5.01 7.86,-1.61 15.05,-5.07 22.32,-8.29 l 0.39,0.03 0.39,-0.04 c 17.32,17.52 37.38,31.45 58.35,44.12 22.27,13.46 45.5,25.1 69.11,35.98 11.96,5.53 24.15,10.64 36.25,15.93 z"
      id="path21"/>
    <path
      class="st6"
      d="m 544.35,248.38 c 1.81,-19.18 7.13,-37.42 14.53,-55.13 6.08,-14.54 14.58,-27.63 23.55,-40.48 0.37,-0.14 0.75,-0.28 1.12,-0.42 24.66,3.95 48.04,11.53 70.03,23.59 9.5,5.21 18.04,11.79 27.33,17.24 -0.02,0.22 -0.04,0.45 -0.08,0.67 -7.38,3.8 -13.22,9.41 -18.41,15.76 -0.53,0.34 -1.05,0.68 -1.58,1.01 -0.68,-0.99 -1.72,-1.06 -2.79,-1.17 -8.17,-0.83 -16.19,-1.88 -24.57,-1.14 -24.26,2.14 -43.76,12.96 -59.69,30.8 -2.3,2.58 -5.12,5.18 -5.56,9.06 -0.5,0.12 -1.01,0.25 -1.51,0.37 -7.45,-1.3 -14.91,-0.47 -22.37,-0.16 z"
      id="path23"/>
    <path
      class="st6"
      d="m 774.53,524.95 c -12.1,-5.3 -24.29,-10.4 -36.28,-15.93 -23.61,-10.89 -46.84,-22.52 -69.11,-35.98 -20.97,-12.68 -41.03,-26.6 -58.35,-44.12 11.84,-8.26 22.77,-17.46 30.8,-29.67 9.59,0.09 19.15,0.42 28.65,-1.7 19.4,-4.31 35.66,-13.65 48.23,-29.17 17.36,3.67 34.46,2.86 51.28,-2.92 2.07,17.25 3.25,34.56 4.08,51.93 1.63194,28.76467 1.57838,71.03739 0.7,107.56 z"
      id="path25"/>
    <path
      class="st3"
      d="m 680.84,193.86 c 0.04,-0.22 0.06,-0.44 0.08,-0.67 13.61,-8.28 28.23,-13.4 44.3,-13.63 34.09,-0.49 61.37,13.41 81.49,40.47 20.34,27.35 26.01,58.06 15.37,90.62 -8.53,26.09 -25.89,44.7 -52.18,54.21 -1.67,-2.14 -0.56,-4.66 -0.94,-6.98 -2.72,-16.7 -5.9,-33.29 -10.82,-49.51 -5.38,-17.73 -12.35,-34.81 -21.83,-50.78 -7.82,-13.18 -16.48,-25.71 -26.88,-37.11 -8.84,-9.68 -18.24,-18.63 -28.59,-26.62 z"
      id="path27"/>
    <path
      class="st5"
      d="m 680.84,193.86 c 10.36,8 19.75,16.95 28.59,26.64 10.4,11.4 19.06,23.93 26.88,37.11 9.48,15.96 16.44,33.04 21.83,50.78 4.92,16.21 8.11,32.81 10.82,49.51 0.38,2.32 -0.73,4.84 0.94,6.98 -0.03,0.2 -0.08,0.41 -0.13,0.61 -16.82,5.78 -33.92,6.59 -51.28,2.92 0,-0.22 -0.02,-0.44 -0.06,-0.66 5.69,-4.54 8.82,-10.9 11.83,-17.22 7.12,-14.97 10.36,-30.67 9.15,-47.39 -0.59,-8.14 -1.74,-16.08 -4.19,-23.79 -5.76,-18.15 -15.69,-33.74 -29.98,-46.35 -8.44,-7.44 -17.71,-13.67 -28.36,-17.79 -4.81,-1.86 -10.01,-2.75 -14.44,-5.58 5.18,-6.37 11.02,-11.97 18.4,-15.77 z"
      id="path29"/>
    <path
      class="st3"
      d="m 610.02,428.93 c -7.27,3.22 -14.46,6.67 -22.32,8.29 -19.02,3.91 -37.61,2.42 -55.56,-5.01 -29.1,-12.05 -48.4,-33.62 -58.2,-63.15 -7.91,-23.84 -7.15,-47.71 3.9,-70.88 12.57,-26.36 33.37,-42.1 61.48,-48.72 1.43,-0.34 2.99,-0.15 4.5,-0.2 -1.91,18 -1.62,35.93 1.04,53.86 4.3,28.94 14.19,55.8 29.34,80.77 10.03,16.54 22.2,31.37 35.82,45.04 z"
      id="path31"/>
    <path
      class="st4"
      d="m 610.02,428.93 c -13.62,-13.68 -25.79,-28.51 -35.82,-45.04 -15.15,-24.97 -25.04,-51.83 -29.34,-80.77 -2.66,-17.93 -2.94,-35.87 -1.04,-53.86 0.18,-0.29 0.35,-0.59 0.53,-0.88 7.46,-0.31 14.92,-1.14 22.36,0.17 -1.51,3.1 -3.04,6.19 -4.51,9.32 -9.28,19.67 -11.51,40.21 -6.74,61.35 6.53,28.96 22.48,51.39 48.01,66.68 11.68,7 24.24,11.83 38.07,12.56 0.02,0.26 0.04,0.53 0.05,0.8 -8.03,12.22 -18.96,21.41 -30.8,29.67 0,0 -0.39,0.04 -0.39,0.04 z"
      id="path33"/>
    <path
      class="st2"
      d="m 662.42,209.62 c 4.43,2.82 9.63,3.72 14.44,5.58 10.66,4.11 19.93,10.34 28.36,17.79 14.29,12.61 24.22,28.2 29.98,46.35 2.45,7.71 3.6,15.65 4.19,23.79 1.21,16.72 -2.04,32.41 -9.15,47.39 -3.01,6.32 -6.13,12.69 -11.83,17.22 -1.32,-0.2 -2.69,-0.26 -3.97,-0.62 -26.19,-7.31 -45.6,-23.33 -59.78,-46.25 -5.57597,-8.48665 -8.05968,-16.38437 -10.5,-25.31 -5.27,-19.17 -4.63,-38.12 1.68,-56.98 3.42,-10.2 9.05,-19.14 14.99,-27.94 0.54,-0.34 1.07,-0.68 1.59,-1.02 z"
      id="path35"/>
    <path
      class="st1"
      d="m 647.38,309.35 c 5.96236,14.08834 9.24,30.54 7.86,46.86 -1.29,15.17 -5.3,29.41 -13.69,42.25 -13.83,-0.73 -26.39,-5.56 -38.07,-12.56 -25.53,-15.29 -41.48,-37.72 -48.01,-66.68 -4.76,-21.14 -2.54,-41.67 6.74,-61.35 1.47,-3.12 3.01,-6.21 4.51,-9.32 0.5,-0.12 1.01,-0.24 1.51,-0.37 6.52,1.57 13.2,2.57 19.49,4.96 23.84,9.05 42.58,24.11 54.93,46.73 2.03461,4.14613 3.04415,5.49653 4.73,9.48 z"
      id="path37"/>
    <path
      class="st7"
      d="m 647.2855,305.92125 c -0.58416,-0.24301 -1.18847,0.67662 -1.47795,0.13667 -1.13213,-2.11174 -2.32991,-4.66291 -3.15755,-6.18792 -12.35,-22.62 -31.09,-37.68 -54.93,-46.73 -6.29,-2.39 -12.97,-3.39 -19.49,-4.96 0.44,-3.88 3.25,-6.48 5.56,-9.06 15.93,-17.85 35.42,-28.66 59.69,-30.8 8.38,-0.74 16.41,0.31 24.57,1.14 1.07,0.11 2.11,0.19 2.79,1.17 -5.94,8.81 -11.57,17.75 -14.99,27.94 -6.32,18.85 -6.96,37.81 -1.68,56.98 0.91,3.31 2.04121,6.81482 3.1155,10.37125 z"
      id="path39"/>
    <path
      class="st7"
      d="m 641.54,398.45 c 8.39,-12.84 12.4,-27.08 13.69,-42.25 1.39,-16.32 -1.62,-31.84 -7.86,-46.86 -0.10962,-0.26622 -1.37581,-2.8735 -1.82031,-3.68923 -0.3281,-0.60212 1.51392,-0.17339 1.50914,-0.45541 1.92877,5.63891 4.85429,11.1766 7.52429,15.5066 14.17,22.92 33.6569,39.09804 59.8569,46.40804 1.28,0.36 2.64,0.42 3.97,0.62 0.04,0.22 0.06,0.44 0.06,0.66 -12.58,15.51 -28.84,24.85 -48.23,29.17 -9.5,2.11 -19.06,1.79 -28.65,1.7 -0.01,-0.28 -0.03,-0.54 -0.05,-0.81 z"
      id="path41"/>
	</g>
</g>
  <g
    id="Camada_1_cópia_2"
    class="st0">
	<g
    class="st8"
    id="g98">
		<g
      id="g96">
			<path
        class="st9"
        d="M699.42,759.9c-124.45,0-248.89-0.02-373.34,0.1c-3.56,0-4.07-0.99-4.07-4.24     c0.08-248.89,0.09-497.78-0.02-746.67c0-3.56,0.99-4.07,4.24-4.07C575.13,5.1,824.02,5.11,1072.91,5c3.56,0,4.07,0.99,4.07,4.24     c-0.08,248.89-0.09,497.78,0.02,746.67c0,3.56-0.99,4.07-4.24,4.07C948.31,759.89,823.87,759.9,699.42,759.9z M969.21,348.53     c-0.03-1.08-0.06-2.15-0.09-3.23c0.32-9.43-1.46-18.68-2.41-28.01c-1.69-16.6-4.96-32.88-9.01-49.05     c-5.84-23.29-15.02-45.16-27.11-65.86c-4.35-7.45-9.76-14.15-14.86-21.08c-11.97-16.27-26.42-29.91-42.68-41.64     c-7.7-5.55-15.89-10.42-24.18-15.16c-10.4-5.95-21.44-10.34-32.59-14.2c-5.73-1.98-11.93-3.41-18.04-4.64     c-17.96-3.6-35.89-6.43-54.39-4.9c-14.82,1.23-29.5,2.35-43.75,7.16c-13.84,4.67-28.11,8.11-41.86,13.04     c-10.88,3.9-21.97,7.05-32.91,10.71c-9.04,3.91-18.76,5.81-27.88,9.56c-14.76,6.07-28.96,13.32-43.33,20.21     c-12.34,5.91-25.01,11.16-36.86,18.06l0.05-0.02c-0.7,0.14-1.56-0.09-1.92,0.84c-3.61,2.48-8.08,2.89-11.86,4.86     c-11.95,6.22-23.59,12.82-34.45,20.99c-14.08,10.6-26.12,23.11-36.41,37.14c-21.42,29.21-33.12,62.35-36.29,98.31     c-1.13,12.83-0.77,25.81,0.49,38.77c1.54,15.91,5.03,31.29,10.02,46.36c7.9,23.88,19.93,45.52,35.43,65.39     c13.17,16.87,28.47,31.39,45.37,44.35c13.4,10.27,27.6,19.3,42.19,27.82c17.93,10.48,36.39,19.91,55.18,28.63     c25.39,11.79,51.15,22.79,76.78,34.07c16.39,7.21,32.71,14.58,49.26,21.4c12.61,5.2,24.96,10.93,37.44,16.4     c16.55,7.25,33.06,14.55,49.06,22.97c3.49,1.3,6.08-1.13,8.83-2.38c12.13-5.48,24.17-11.15,36.22-16.8     c14.57-6.84,29.11-13.74,43.66-20.61c0.74-0.09,1.52-0.07,2.21-0.3c27.55-9.33,55.09-18.68,82.63-28.03     c1.88-4.58,0.75-9.37,0.77-14.03c0.02-5.62,1.11-11.34-0.66-16.9c0.07-3.85,0.22-7.69,0.21-11.54     c-0.06-24.5-0.16-48.99-0.23-73.49c-0.03-7.99-0.03-15.98-0.04-23.96c1.55-0.93,0.82-2.46,0.82-3.67     c0.06-26.13,0.07-52.26,0-78.39c0-1.37,0.71-3.05-0.83-4.17c-0.08-1.52-0.15-3.03-0.23-4.55c0.06-5.81,0.23-11.62,0.13-17.43     c-0.04-2.26,0.99-4.72-0.84-6.78c0.03-0.26,0.02-0.51-0.01-0.77c0.72-0.32,0.64-0.64-0.01-0.95c-0.06-0.36-0.12-0.73-0.17-1.09     c-0.33-4.35,1.27-8.81-0.73-13.07L969.21,348.53z"
        id="path46"/>
      <path
        class="st1"
        d="M625.35,131.68c10.94-3.66,22.03-6.81,32.92-10.71c13.74-4.93,28.01-8.37,41.86-13.04     c14.25-4.81,28.93-5.93,43.75-7.16c18.5-1.53,36.42,1.3,54.39,4.9c6.11,1.23,12.31,2.65,18.04,4.64     c11.15,3.86,22.19,8.25,32.59,14.2c8.29,4.74,16.48,9.61,24.18,15.16c16.26,11.73,30.7,25.37,42.68,41.64     c5.11,6.94,10.51,13.63,14.86,21.08c12.09,20.7,21.28,42.56,27.11,65.86c4.05,16.17,7.32,32.45,9.01,49.05     c0.95,9.33,2.72,18.58,2.41,28.01c-0.87,1.1-0.65,2.17,0.09,3.23c0,0,0.11,0.34,0.11,0.34c0.26,4.35-0.49,8.77,0.73,13.07     c0.06,0.36,0.12,0.73,0.17,1.09c0,0.32,0,0.63,0.01,0.95c0.04,0.25,0.04,0.51,0.01,0.77c0.24,8.07-0.53,16.17,0.71,24.21     c0.08,1.52,0.15,3.03,0.23,4.55c0.01,28.74,0.01,57.49,0.02,86.23c0.01,7.99,0.01,15.98,0.04,23.96     c0.08,24.5,0.17,48.99,0.23,73.49c0.01,3.85-0.14,7.69-0.21,11.54c-0.04,10.31-0.07,20.62-0.11,30.93     c-27.54,9.35-55.08,18.7-82.63,28.03c-0.69,0.23-1.47,0.21-2.21,0.3c-0.13-1.64-0.3-3.28-0.37-4.92     c-0.87-21.24-1.72-42.47-2.58-63.71c0.58-28.44,0.07-56.88,0.75-85.32c0.82-34.28,0.41-68.58-1.42-102.86     c-0.81-15.13-1.86-30.22-3.64-45.27c-2.96-25.11-8.06-49.71-16.57-73.55c-9.67-27.07-23.86-51.58-43.02-72.93     c-22.47-25.05-49.21-44.23-80.76-56.67c-28.33-11.18-57.63-15.17-87.85-13.77c-0.92,0.04-1.81,0.09-2.42,0.92l0.04-0.02     c-2.78,0.06-5.67-0.79-8.27,0.9c-1.62,0.25-3.26,0.79-4.86,0.71C631.99,131.31,628.7,133.89,625.35,131.68z"
        id="path48"/>
      <path
        class="st2"
        d="M797.6,687.78c-16-8.42-32.51-15.72-49.06-22.97c-12.48-5.47-24.83-11.2-37.44-16.4     c-16.55-6.82-32.87-14.19-49.26-21.4c-25.63-11.28-51.38-22.28-76.78-34.07c-18.79-8.72-37.25-18.15-55.18-28.63     c-14.59-8.52-28.79-17.54-42.19-27.82c-16.9-12.96-32.2-27.47-45.37-44.35c-15.5-19.87-27.53-41.5-35.43-65.39     c-4.99-15.07-8.48-30.45-10.02-46.36c-1.26-12.96-1.62-25.94-0.49-38.77c3.18-35.95,14.87-69.09,36.29-98.31     c10.29-14.03,22.33-26.54,36.41-37.14c10.85-8.17,22.5-14.77,34.45-20.99c3.78-1.97,8.25-2.38,11.86-4.86     c0.81,0.12,1.52-0.01,1.92-0.84c0,0-0.05,0.02-0.05,0.02c1.87,0.32,3.53-0.46,5.24-0.98c7.55-2.29,14.94-5.15,22.83-6.17     c-10.95,11.91-22.81,22.92-31.88,36.58c-9.63,14.49-17.55,29.77-22.82,46.22c-5.02,15.66-8.58,31.68-9.74,48.3     c-1.08,15.53-0.76,30.91,1.49,46.19c2.96,20.09,8.87,39.37,17.29,57.93c9.84,21.68,22.91,41.16,39.03,58.54     c13.91,15,29.48,28.11,46.47,39.65c15.78,10.72,32.06,20.55,48.89,29.44c14.6,7.7,29.52,14.81,44.46,21.83     c12.5,5.87,25.21,11.3,37.87,16.81c20.5,8.93,40.99,17.9,61.6,26.6c7.03,2.97,13.69,6.9,21.23,8.62     c0.04,25.04,0.07,50.09,0.1,75.13C799.35,685.64,799.69,687.31,797.6,687.78z"
        id="path50"/>
      <path
        class="st3"
        d="M797.6,687.78c2.08-0.46,1.75-2.14,1.75-3.59c-0.03-25.04-0.06-50.09-0.1-75.13     c0.04-2.55,0.12-5.1,0.13-7.66c0.07-19.22,0.14-38.44,0.2-57.67c6.24,2.58,12.51,5.11,18.72,7.77     c21.69,9.26,43.37,18.56,65.05,27.85c0.86,21.24,1.71,42.47,2.58,63.71c0.07,1.64,0.25,3.28,0.37,4.92     c-14.55,6.87-29.09,13.77-43.66,20.61c-12.05,5.66-24.09,11.32-36.22,16.8C803.68,686.65,801.1,689.08,797.6,687.78z"
        id="path52"/>
      <path
        class="st10"
        d="M545.36,172.36c-7.89,1.02-15.29,3.88-22.83,6.17c-1.71,0.52-3.37,1.3-5.24,0.98     c11.86-6.9,24.53-12.15,36.86-18.06c14.37-6.88,28.57-14.13,43.33-20.21c9.12-3.75,18.84-5.65,27.87-9.56     c3.35,2.21,6.64-0.37,9.98-0.19c1.6,0.09,3.24-0.45,4.87-0.71c2.78-0.1,5.64,0.52,8.27-0.9c0,0-0.04,0.02-0.04,0.02     c0.72,0.13,1.44,0.26,2.83,0.51c-6.2,4.34-12.07,8.21-17.28,12.9c-9.23,8.33-18.45,16.68-25.53,27.04     c-0.37,0.14-0.74,0.28-1.11,0.42c-3.51-2.03-7.38-0.85-11.07-1.26C579.15,167.59,562.18,168.7,545.36,172.36z"
        id="path54"/>
      <path
        class="st11"
        d="M971.2,479.73c-0.01-28.74-0.01-57.49-0.02-86.23c1.54,1.13,0.83,2.8,0.83,4.17     c0.07,26.13,0.06,52.26,0,78.39C972.01,477.27,972.75,478.81,971.2,479.73z"
        id="path56"/>
      <path
        class="st11"
        d="M971.15,619.66c0.04-10.31,0.07-20.62,0.11-30.93c1.77,5.56,0.68,11.28,0.66,16.9     C971.9,610.29,973.03,615.08,971.15,619.66z"
        id="path58"/>
      <path
        class="st11"
        d="M970.95,388.95c-1.24-8.04-0.47-16.14-0.71-24.21c1.83,2.06,0.8,4.52,0.84,6.78     C971.18,377.33,971.01,383.14,970.95,388.95z"
        id="path60"/>
      <path
        class="st11"
        d="M970.05,361.94c-1.22-4.3-0.47-8.72-0.73-13.07C971.32,353.13,969.72,357.59,970.05,361.94z"
        id="path62"/>
      <path
        class="st11"
        d="M969.21,348.53c-0.74-1.06-0.96-2.13-0.09-3.23C969.15,346.37,969.18,347.45,969.21,348.53z"
        id="path64"/>
      <path
        class="st10"
        d="M517.33,179.49c-0.4,0.83-1.11,0.96-1.92,0.84C515.77,179.4,516.64,179.63,517.33,179.49z"
        id="path66"/>
      <path
        class="st11"
        d="M970.23,363.98c0-0.32,0-0.63-0.01-0.95C970.86,363.34,970.94,363.66,970.23,363.98z"
        id="path68"/>
      <path
        class="st4"
        d="M608.46,170.36c7.08-10.36,16.29-18.72,25.53-27.04c5.21-4.7,11.08-8.56,17.28-12.9     c-1.4-0.25-2.11-0.38-2.83-0.51c0.61-0.83,1.5-0.88,2.42-0.92c30.22-1.4,59.51,2.6,87.85,13.77     c31.54,12.44,58.28,31.62,80.76,56.67c19.16,21.35,33.35,45.86,43.02,72.93c8.52,23.85,13.62,48.44,16.57,73.55     c1.77,15.06,2.83,30.14,3.64,45.27c1.83,34.27,2.23,68.58,1.42,102.86c-0.68,28.45-0.17,56.89-0.75,85.32     c-21.68-9.29-43.36-18.59-65.05-27.85c-6.21-2.65-12.48-5.18-18.72-7.77c-0.05-0.26-0.1-0.53-0.15-0.79     c0.26-7.79,0.71-15.58,0.76-23.37c0.11-18.47,0.24-36.94-0.72-55.39c-0.5-9.58-0.27-19.18-0.73-28.79     c-0.83-17.37-2.01-34.67-4.08-51.92c0.05-0.2,0.1-0.4,0.13-0.61c26.28-9.52,43.64-28.12,52.17-54.21     c10.65-32.56,4.97-63.26-15.37-90.61c-20.12-27.06-47.4-40.96-81.49-40.47c-16.07,0.23-30.68,5.34-44.3,13.63     c-9.29-5.46-17.84-12.03-27.33-17.24C656.5,181.89,633.12,174.31,608.46,170.36z"
        id="path70"/>
      <path
        class="st4"
        d="M648.47,129.89c-2.64,1.42-5.49,0.8-8.27,0.9C642.8,129.1,645.69,129.95,648.47,129.89z"
        id="path72"/>
      <path
        class="st5"
        d="M799.43,542.95c0.05,0.26,0.1,0.53,0.15,0.79c-0.06,19.22-0.13,38.44-0.2,57.67     c-0.01,2.55-0.08,5.1-0.13,7.66c-7.54-1.72-14.2-5.65-21.23-8.62c-20.61-8.69-41.1-17.66-61.6-26.6     c-12.66-5.52-25.37-10.94-37.87-16.81c-14.94-7.02-29.87-14.13-44.46-21.83c-16.83-8.88-33.11-18.72-48.89-29.44     c-16.99-11.54-32.56-24.65-46.47-39.65c-16.12-17.38-29.19-36.85-39.03-58.54c-8.42-18.56-14.33-37.85-17.29-57.93     c-2.25-15.28-2.57-30.66-1.49-46.19c1.15-16.62,4.72-32.64,9.74-48.3c5.27-16.45,13.19-31.73,22.82-46.22     c9.07-13.66,20.94-24.67,31.88-36.58c16.82-3.66,33.79-4.77,50.91-2.85c3.69,0.41,7.57-0.76,11.07,1.26     c-8.97,12.84-17.47,25.93-23.55,40.47c-7.41,17.72-12.72,35.96-14.54,55.13c-0.18,0.29-0.36,0.59-0.53,0.88     c-1.5,0.06-3.06-0.14-4.49,0.2c-28.1,6.62-48.9,22.36-61.47,48.72c-11.05,23.17-11.81,47.03-3.9,70.87     c9.8,29.53,29.1,51.1,58.2,63.14c17.95,7.43,36.54,8.92,55.55,5.02c7.86-1.61,15.04-5.07,22.32-8.28l0.39,0.03l0.39-0.04     c17.32,17.52,37.38,31.44,58.35,44.12c22.26,13.46,45.5,25.1,69.1,35.98C775.15,532.55,787.33,537.65,799.43,542.95z"
        id="path74"/>
      <path
        class="st6"
        d="M569.26,266.38c1.82-19.18,7.13-37.42,14.54-55.13c6.08-14.54,14.58-27.64,23.55-40.47     c0.37-0.14,0.75-0.28,1.12-0.41c24.66,3.95,48.04,11.53,70.02,23.59c9.49,5.21,18.04,11.79,27.33,17.24     c-0.02,0.22-0.04,0.45-0.08,0.67c-7.38,3.8-13.22,9.41-18.41,15.76c-0.53,0.34-1.05,0.68-1.58,1.01     c-0.69-0.98-1.72-1.06-2.79-1.17c-8.17-0.84-16.19-1.88-24.57-1.14c-24.26,2.14-43.76,12.96-59.68,30.8     c-2.3,2.58-5.12,5.18-5.56,9.06c-0.5,0.12-1.01,0.24-1.51,0.36C584.18,265.24,576.72,266.07,569.26,266.38z"
        id="path76"/>
      <path
        class="st6"
        d="M799.43,542.95c-12.1-5.3-24.28-10.4-36.27-15.93c-23.61-10.89-46.84-22.52-69.1-35.98     c-20.97-12.67-41.03-26.6-58.35-44.12c11.83-8.27,22.77-17.46,30.8-29.67c9.59,0.09,19.15,0.42,28.65-1.7     c19.39-4.31,35.65-13.65,48.23-29.17c17.36,3.67,34.46,2.86,51.28-2.92c2.07,17.25,3.25,34.56,4.08,51.93     c0.46,9.61,0.23,19.2,0.73,28.79c0.96,18.46,0.82,36.93,0.72,55.39C800.14,527.37,799.7,535.16,799.43,542.95z"
        id="path78"/>
      <path
        class="st3"
        d="M705.74,211.86c0.04-0.22,0.06-0.44,0.08-0.67c13.61-8.28,28.22-13.39,44.3-13.63     c34.09-0.49,61.37,13.41,81.49,40.47c20.34,27.35,26.01,58.06,15.37,90.61c-8.53,26.09-25.89,44.7-52.17,54.21     c-1.67-2.14-0.56-4.66-0.94-6.98c-2.72-16.7-5.9-33.29-10.82-49.5c-5.38-17.73-12.35-34.81-21.83-50.77     c-7.82-13.18-16.48-25.71-26.88-37.11C725.49,228.81,716.1,219.86,705.74,211.86z"
        id="path80"/>
      <path
        class="st5"
        d="M705.74,211.86c10.35,8,19.75,16.95,28.59,26.64c10.4,11.4,19.06,23.93,26.88,37.11     c9.47,15.96,16.44,33.04,21.83,50.77c4.92,16.21,8.11,32.81,10.82,49.5c0.38,2.32-0.73,4.84,0.94,6.98     c-0.03,0.2-0.08,0.41-0.13,0.61c-16.82,5.78-33.92,6.59-51.28,2.92c0-0.22-0.02-0.44-0.06-0.66c5.69-4.54,8.82-10.9,11.83-17.22     c7.12-14.97,10.37-30.67,9.15-47.38c-0.59-8.14-1.74-16.08-4.19-23.79c-5.76-18.15-15.69-33.74-29.98-46.35     c-8.44-7.44-17.71-13.67-28.36-17.79c-4.81-1.86-10.01-2.75-14.44-5.58C692.52,221.27,698.36,215.66,705.74,211.86z"
        id="path82"/>
      <path
        class="st3"
        d="M634.93,446.94c-7.27,3.21-14.46,6.67-22.32,8.28c-19.02,3.91-37.61,2.42-55.55-5.02     c-29.09-12.05-48.39-33.61-58.2-63.14c-7.91-23.84-7.15-47.71,3.9-70.87c12.57-26.36,33.37-42.1,61.47-48.72     c1.43-0.34,2.99-0.15,4.5-0.2c-1.91,18-1.62,35.93,1.04,53.86c4.3,28.94,14.19,55.8,29.34,80.77     C609.13,418.43,621.31,433.26,634.93,446.94z"
        id="path84"/>
      <path
        class="st12"
        d="M634.93,446.94c-13.62-13.68-25.79-28.51-35.82-45.04c-15.15-24.97-25.04-51.83-29.34-80.77     c-2.66-17.93-2.95-35.87-1.04-53.86c0.18-0.29,0.35-0.59,0.53-0.88c7.46-0.31,14.92-1.14,22.37,0.17     c-1.51,3.1-3.04,6.2-4.51,9.32c-9.28,19.67-11.51,40.21-6.74,61.35c6.53,28.96,22.48,51.4,48.01,66.68     c11.69,7,24.24,11.83,38.07,12.56c0.02,0.26,0.04,0.53,0.05,0.79c-8.03,12.22-18.97,21.41-30.8,29.67c0,0-0.39,0.04-0.39,0.04     L634.93,446.94z"
        id="path86"/>
      <path
        class="st2"
        d="M687.33,227.62c4.43,2.82,9.63,3.72,14.44,5.58c10.66,4.11,19.93,10.34,28.36,17.79     c14.29,12.61,24.22,28.2,29.98,46.35c2.45,7.71,3.6,15.65,4.19,23.79c1.21,16.72-2.04,32.41-9.15,47.38     c-3.01,6.32-6.13,12.69-11.83,17.22c-1.32-0.2-2.69-0.26-3.97-0.62c-26.19-7.31-45.6-23.32-59.77-46.24     c-2.68-4.33-3.72-9.51-7.34-13.28c-0.17-0.7-0.34-1.4-0.51-2.1c-0.88-3.31-1.74-6.63-2.65-9.93     c-5.27-19.17-4.63-38.12,1.69-56.98c3.42-10.2,9.05-19.14,14.99-27.94C686.27,228.3,686.8,227.96,687.33,227.62z"
        id="path88"/>
      <path
        class="st1"
        d="M671.72,323.48c0.17,0.7,0.34,1.4,0.51,2.11c0.01,0.59-0.16,1.26,0.05,1.76     c6.24,15.01,9.24,30.54,7.86,46.85c-1.29,15.17-5.3,29.4-13.69,42.25c-13.83-0.73-26.39-5.56-38.07-12.56     c-25.53-15.29-41.48-37.72-48.01-66.68c-4.76-21.14-2.54-41.67,6.74-61.35c1.47-3.12,3.01-6.21,4.51-9.32     c0.5-0.12,1.01-0.24,1.51-0.36c6.52,1.56,13.2,2.57,19.49,4.95c23.84,9.05,42.57,24.1,54.93,46.72     C668.64,319.84,669.23,322.45,671.72,323.48z"
        id="path90"/>
      <path
        class="st7"
        d="M671.72,323.48c-2.5-1.04-3.08-3.64-4.17-5.63c-12.36-22.62-31.09-37.67-54.93-46.72     c-6.29-2.39-12.97-3.39-19.49-4.95c0.44-3.88,3.25-6.48,5.56-9.06c15.93-17.85,35.42-28.66,59.68-30.8     c8.38-0.74,16.41,0.31,24.57,1.14c1.07,0.11,2.11,0.18,2.79,1.17c-5.94,8.81-11.57,17.75-14.99,27.94     c-6.31,18.85-6.96,37.81-1.69,56.98C669.98,316.86,670.84,320.18,671.72,323.48z"
        id="path92"/>
      <path
        class="st7"
        d="M666.45,416.45c8.38-12.84,12.4-27.08,13.69-42.25c1.38-16.32-1.62-31.84-7.86-46.85     c-0.21-0.51-0.04-1.17-0.05-1.76c3.62,3.77,4.67,8.95,7.34,13.28c14.17,22.92,33.58,38.93,59.77,46.24     c1.28,0.36,2.64,0.42,3.97,0.62c0.04,0.22,0.06,0.44,0.06,0.66c-12.58,15.51-28.84,24.85-48.23,29.17     c-9.5,2.11-19.06,1.79-28.65,1.7C666.49,416.98,666.47,416.72,666.45,416.45z"
        id="path94"/>
		</g>
	</g>
</g>
  <g
    id="Camada_1_cópia"
    class="st0">
	<g
    class="st8"
    id="g109">
		<g
      id="g107">
			<path
        class="st13"
        d="M1077,760c-251.67,0-503.33,0-755,0c0-251.67,0-503.33,0-755c251.67,0,503.33,0,755,0     C1077,256.67,1077,508.33,1077,760z M543.8,172.5c0.43,0.59,0.87,1.17,1.3,1.76c-1.35,0.93-2.83,1.71-4.03,2.8     c-14.71,13.43-26.96,28.89-36.41,46.35c-22.55,41.66-29.46,86.08-21.03,132.57c10.2,56.3,39.43,101.24,83.89,136.68     c30.96,24.68,65.62,43.21,101.38,59.6c41.34,18.95,83.17,36.83,124.87,54.99c4.11,1.79,5.55,4.06,5.51,8.47     c-0.19,24.16-0.09,48.31-0.09,72.51c0.29-0.03,0.78,0.02,1.16-0.16c27.56-12.85,55.09-25.74,82.68-38.52     c2.15-1,2.64-2.1,2.55-4.4c-0.82-19.87-1.6-39.74-2.06-59.61c-0.1-4.26-1.58-6.38-5.47-8.01c-27.22-11.4-54.58-22.5-81.44-34.7     c-28.23-12.82-56.3-26.08-83.79-40.4c-30.14-15.7-58.26-34.52-81.96-59.35c-48.35-50.64-70.35-110.64-61.86-180.33     c6.44-52.88,31.94-95.61,74.78-127.68c1.68-1.26,3.38-2.48,6.12-4.49c-17.38,1.43-33.4,2.91-48.21,9.5     c-21.77,9.68-43.28,19.95-64.88,30c-6.69,3.11-13.33,6.33-19.99,9.5c0.07,0.15,0.14,0.3,0.21,0.45     C525.94,177.51,534.87,175.01,543.8,172.5z M745.17,385.25c0.41,0.39,0.59,0.73,0.83,0.78c18.57,4.04,36.92,2.48,53.91-5.48     c33.81-15.84,50.52-43.69,51.61-80.52c1.31-44.15-28.73-85.28-69.9-97.69c-34.19-10.31-64.57-3.79-90.26,21.68     c-1.09,1.08-1.97,2.38-3.4,4.14c34.25,10.25,58.09,31.18,70.3,63.97C770.59,325.25,765.98,356.57,745.17,385.25z"
        id="path101"/>
      <path
        d="M543.8,172.5c-8.93,2.51-17.85,5.02-26.78,7.52c-0.07-0.15-0.14-0.3-0.21-0.45c6.66-3.17,13.3-6.38,19.99-9.5     c21.6-10.05,43.11-20.32,64.88-30c14.82-6.59,30.83-8.06,48.21-9.5c-2.74,2-4.44,3.23-6.12,4.49     c-42.84,32.07-68.35,74.8-74.78,127.68c-8.48,69.7,13.52,129.69,61.86,180.33c23.7,24.83,51.82,43.65,81.96,59.35     c27.49,14.32,55.56,27.58,83.79,40.4c26.86,12.2,54.22,23.3,81.44,34.7c3.89,1.63,5.37,3.75,5.47,8.01     c0.47,19.88,1.25,39.75,2.06,59.61c0.09,2.3-0.39,3.4-2.55,4.4c-27.59,12.78-55.12,25.67-82.68,38.52     c-0.38,0.18-0.87,0.12-1.16,0.16c0-24.19-0.1-48.35,0.09-72.51c0.03-4.41-1.4-6.68-5.51-8.47     c-41.7-18.16-83.53-36.04-124.87-54.99c-35.75-16.39-70.42-34.91-101.38-59.6c-44.46-35.44-73.69-80.38-83.89-136.68     c-8.42-46.49-1.52-90.91,21.03-132.57c9.45-17.46,21.71-32.92,36.41-46.35c1.2-1.09,2.68-1.87,4.03-2.8     C544.66,173.67,544.23,173.09,543.8,172.5z"
        id="path103"/>
      <path
        d="M745.17,385.25c20.81-28.68,25.42-60,13.08-93.13c-12.2-32.79-36.05-53.72-70.3-63.97c1.43-1.76,2.31-3.06,3.4-4.14     c25.7-25.47,56.07-31.99,90.26-21.68c41.17,12.41,71.21,53.54,69.9,97.69c-1.09,36.83-17.81,64.68-51.61,80.52     c-17,7.97-35.35,9.53-53.91,5.48C745.76,385.97,745.58,385.64,745.17,385.25z"
        id="path105"/>
		</g>
	</g>
</g>
  <g
    id="Camada_2">
</g>
</svg>
