<?xml version="1.0" encoding="utf-8"?>
<svg viewBox="0 0 461.99998 170" xmlns="http://www.w3.org/2000/svg">
  <defs>
    <clipPath id="Clip1">
      <path d="M 0,0 H 300.643 V 43.605 H 0 Z" id="path874"/>
    </clipPath>
  </defs>
  <g style="fill:none;stroke:none" transform="matrix(1.08402, 0, 0, 1.08065, 135.454742, 54.985683)" clip-rule="evenodd" clip-path="url(#Clip1)" id="g895">
    <path style="fill:#c74759;fill-rule:evenodd;stroke:none" id="Texto2+U0" transform="translate(0,2.907)" d="m 22.629,15.96 c 3.306,0.684 5.8425,2.0425 7.6095,4.0755 1.767,2.033 2.6505,4.4935 2.6505,7.3815 0,2.356 -0.6365,4.541 -1.9095,6.555 -1.273,2.014 -3.211,3.6385 -5.814,4.8735 -2.603,1.235 -5.8235,1.8525 -9.6615,1.8525 -2.812,0 -5.5955,-0.342 -8.3505,-1.026 C 4.3985,38.988 2.014,38.019 0,36.765 l 4.104,-8.493 c 1.558,1.064 3.3155,1.881 5.2725,2.451 1.957,0.57 3.8855,0.855 5.7855,0.855 1.938,0 3.477,-0.361 4.617,-1.083 1.14,-0.722 1.71,-1.748 1.71,-3.078 0,-2.584 -2.033,-3.876 -6.099,-3.876 H 10.659 V 16.416 L 17.784,8.721 H 2.052 V 0 h 28.842 v 7.068 z"/>
    <path style="fill:#c74759;fill-rule:evenodd;stroke:none" id="Texto2+U1" transform="translate(35.839)" d="M 9.576,0 C 16.492,0 19.95,2.869 19.95,8.607 v 10.146 h -6.84 v -2.394 c -0.988,1.786 -2.926,2.679 -5.814,2.679 -2.318,0 -4.1135,-0.532 -5.3865,-1.596 C 0.6365,16.378 0,15.01 0,13.338 0,9.69 2.907,7.866 8.721,7.866 H 12.54 C 12.35,6.08 10.982,5.187 8.436,5.187 7.562,5.187 6.6405,5.3295 5.6715,5.6145 4.7025,5.8995 3.876,6.289 3.192,6.783 L 0.798,2.223 C 1.9,1.539 3.249,0.9975 4.845,0.5985 6.441,0.1995 8.018,0 9.576,0 Z M 9.405,14.763 c 0.722,0 1.3585,-0.1615 1.9095,-0.4845 0.551,-0.323 0.9595,-0.7885 1.2255,-1.3965 V 11.4 H 9.861 c -1.938,0 -2.907,0.551 -2.907,1.653 0,0.532 0.2185,0.95 0.6555,1.254 0.437,0.304 1.0355,0.456 1.7955,0.456 z"/>
    <path style="fill:#c74759;fill-rule:evenodd;stroke:none" id="Texto2+U2" transform="translate(60.166,2.109)" d="m 22.173,41.496 c -4.218,0 -8.0085,-0.893 -11.3715,-2.679 -3.363,-1.786 -6.004,-4.256 -7.923,-7.41 C 0.9595,28.253 0,24.7 0,20.748 0,16.796 0.9595,13.243 2.8785,10.089 4.7975,6.935 7.4385,4.465 10.8015,2.679 14.1645,0.893 17.955,0 22.173,0 c 4.218,0 8.0085,0.893 11.3715,2.679 3.363,1.786 6.004,4.256 7.923,7.41 1.919,3.154 2.8785,6.707 2.8785,10.659 0,3.952 -0.9595,7.505 -2.8785,10.659 -1.919,3.154 -4.56,5.624 -7.923,7.41 -3.363,1.786 -7.1535,2.679 -11.3715,2.679 z m 0,-9.348 c 2.014,0 3.838,-0.475 5.472,-1.425 1.634,-0.95 2.926,-2.2895 3.876,-4.0185 0.95,-1.729 1.425,-3.7145 1.425,-5.9565 0,-2.242 -0.475,-4.2275 -1.425,-5.9565 -0.95,-1.729 -2.242,-3.0685 -3.876,-4.0185 -1.634,-0.95 -3.458,-1.425 -5.472,-1.425 -2.014,0 -3.838,0.475 -5.472,1.425 -1.634,0.95 -2.926,2.2895 -3.876,4.0185 -0.95,1.729 -1.425,3.7145 -1.425,5.9565 0,2.242 0.475,4.2275 1.425,5.9565 0.95,1.729 2.242,3.0685 3.876,4.0185 1.634,0.95 3.458,1.425 5.472,1.425 z"/>
    <path style="fill:#c74759;fill-rule:evenodd;stroke:none" id="Texto2+U3" transform="translate(112.203,4.307)" d="M 25.74,38.5 17.435,26.675 c -1.0267,0.0733 -1.8333,0.11 -2.42,0.11 H 5.5 V 38.5 H 0 V 0 h 15.015 c 4.9867,0 8.91,1.19167 11.77,3.575 2.86,2.38333 4.29,5.665 4.29,9.845 0,2.97 -0.7333,5.5 -2.2,7.59 -1.4667,2.09 -3.5567,3.6117 -6.27,4.565 L 31.735,38.5 Z M 14.85,22.11 c 3.4833,0 6.1417,-0.7517 7.975,-2.255 1.8333,-1.5033 2.75,-3.6483 2.75,-6.435 0,-2.7867 -0.9167,-4.9225 -2.75,-6.4075 C 20.9917,5.5275 18.3333,4.785 14.85,4.785 H 5.5 V 22.11 Z"/>
    <path style="fill:#c74759;fill-rule:evenodd;stroke:none" id="Texto2+U4" transform="translate(152.103,4.307)" d="M 27.94,33.715 V 38.5 H 0 V 0 H 27.17 V 4.785 H 5.5 V 16.61 h 19.305 v 4.675 H 5.5 v 12.43 z"/>
    <path style="fill:#c74759;fill-rule:evenodd;stroke:none" id="Texto2+U5" transform="translate(188.903,4.307)" d="M 0,0 H 5.5 V 33.715 H 26.345 V 38.5 H 0 Z"/>
    <path style="fill:#c74759;fill-rule:evenodd;stroke:none" id="Texto2+U6" transform="translate(221.503,4.307)" d="m 33.11,0 v 38.5 h -5.5 V 21.34 H 5.5 V 38.5 H 0 V 0 H 5.5 V 16.555 H 27.61 V 0 Z"/>
    <path style="fill:#c74759;fill-rule:evenodd;stroke:none" id="Texto2+U7" transform="translate(260.273,4.307)" d="M 30.36,28.875 H 9.9 L 5.665,38.5 H 0 L 17.435,0 H 22.88 L 40.37,38.5 H 34.595 Z M 28.435,24.475 20.13,5.61 11.825,24.475 Z"/>
  </g>
  <g id="g1319" transform="matrix(0.289335, 0, 0, 0.289335, -127.458023, -18.689508)" style="display:inline">
    <path id="shape0" transform="matrix(0.72,0,0,0.72,609.96429,70.434005)" fill="#5ccdd9" stroke="#000000" stroke-opacity="0" stroke-width="0" stroke-linecap="square" stroke-linejoin="bevel" d="M 0.05718056,31.32764 C 11.00718,27.68764 22.400158,24.628276 33.230158,20.518276 c 10.33,-3.92 21.17,-6.47 31.64,-10.07 13.65,-4.6899797 27.58,-7.5799797 41.929602,-9.2499797 16.43,-1.92000401 32.58,-1.22000451 48.93,0.82 12.17,1.52 24,4.5 35.57,7.9 11.26,3.3099797 22.18,8.2199797 32.59,14.1499797 8.42,4.8 16.83,9.65 24.58,15.34 15.9,11.68 30.18,25.11 42.05,41.09 5.77,7.76 11.84,15.32 16.56,23.740404 11.18,19.95 20,40.9 25.57,63.16 4.04,16.17 7.24,32.47 9.07,49.05 1.61,14.54 2.79,29.1 3.77,43.7 0.67,10.06 0.04,20.09 0.78,30.09 1.9,25.55 1.17,51.14 0.64,76.67 -0.68,32.86 -0.49776,65.63032 -0.71776,98.48032 -0.11,16.74 1.42,33.45 0.95,50.19 -0.06,2.07 -0.17,3.32 -2.65,4.21 -27.07,9.79 -83.185,32.131 -83.217,32.149 0.029,0.036 -2.04524,-51.78932 -2.90524,-73.02932 0.57,-28.59 -0.03,-57.18 0.76,-85.78 0.79,-28.27 0.5,-56.58 -0.65,-84.87 -0.22,-5.4 -0.45,-10.8 -0.68,-16.19 -0.84,-20.1 -2.65,-40.07 -5.55,-59.98 -2.77,-19.07 -6.96755,-37.73815 -13.23755,-55.90815 -8.84,-25.62 -21.53673,-49.19755 -38.86673,-70.25755 -19.18,-23.320398 -41.93572,-41.979889 -68.79572,-55.649889 -18.7,-9.52 -38.449602,-15.894815 -59.219602,-19.434815 -15.41,-2.63 -30.097,-2.3252 -45.557,-2.3052 -0.92,0.0012 -16.9067375,1.024964 -26.51597744,2.794564 z" style="display:inline"/>
    <path id="shape1" transform="matrix(0.72,0,0,0.72,444.87999,122.16501)" fill="#ce9e43" stroke="#000000" stroke-opacity="0" stroke-width="0" stroke-linecap="square" stroke-linejoin="bevel" d="m 401.896,515.45 c -16,-8.42 -32.51,-15.72 -49.06,-22.97 -12.48,-5.47 -24.83,-11.2 -37.44,-16.4 -16.55,-6.82 -32.87,-14.19 -49.26,-21.4 -25.63,-11.28 -51.39,-22.28 -76.78,-34.07 -18.79,-8.72 -37.25,-18.16 -55.19,-28.63 -14.59,-8.52 -28.79,-17.55 -42.1898,-27.82 -16.9,-12.96 -32.21,-27.48 -45.37,-44.35 -15.5,-19.87 -27.52,-41.51 -35.43,-65.39 C 6.18619,239.35 2.70619,223.96 1.16619,208.05 -0.0838082,195.09 -0.453808,182.11 0.676192,169.27 3.85619,133.32 15.5462,100.17 36.9762,70.96 c 10.29,-14.03 22.32,-26.54 36.41,-37.14 10.86,-8.17 22.5,-14.77 34.4498,-20.99 3.78,-1.97 13.846,-5.65505 17.976,-7.02266 C 129.942,4.43973 141.756,1.03 149.646,0 c -10.95,11.9 -22.81,22.92 -31.89,36.58 -9.63,14.49 -17.55,29.77 -22.8198,46.22 -5.02,15.66 -8.58,31.68 -9.74,48.3 -1.08,15.53 -0.76,30.91 1.49,46.19 2.96,20.09 8.87,39.37 17.2898,57.94 9.84,21.68 22.91,41.16 39.03,58.54 13.91,15 29.48,28.11 46.47,39.65 15.78,10.72 32.06,20.55 48.89,29.44 14.6,7.71 29.52,14.81 44.46,21.83 12.5,5.87 25.21,11.3 37.87,16.81 20.51,8.93 41,17.91 61.6,26.6 7.03,2.97 13.69,6.9 21.23,8.62 0.04,25.04 0.07,50.09 0.1,75.13 0.02,1.46 0.36,3.13 -1.73,3.6 z" style="display:inline"/>
    <path id="shape2" transform="matrix(0.72,0,0,0.72,734.24525,389.57301)" fill="#c7475a" stroke="#000000" stroke-opacity="0" stroke-width="0" stroke-linecap="square" stroke-linejoin="bevel" d="m 0,144.05 c 2.08,-0.47 1.75,-2.14 1.75,-3.59 C 1.72,115.42 1.69,90.37 1.65,65.33 1.69,62.78 1.77,60.23 1.78,57.67 1.85,38.45 1.7700694,18.440097 1.8300694,-0.78990278 8.0700694,1.8000972 14.49,5.11 20.7,7.77 c 21.7,9.26 43.37,18.56 65.06,27.85 0.86,21.24 2.7258,71.437 2.8458,73.077 C 74.2326,114.448 20.96,136.19 8.83,141.67 6.08,142.91 3.5,145.34 0,144.05 Z" style="display:inline"/>
    <path id="shape3" transform="matrix(0.72,0,0,0.72,532.37506,90.769577)" fill="#c7475a" stroke="#000000" stroke-opacity="0" stroke-width="0" stroke-linecap="square" stroke-linejoin="bevel" d="m 28.1353,43.6148 c -7.89,1.02 -24.84881,6.3573 -28.1353,7.2555 11.78,-6.82 24.4053,-12.1455 36.6453,-18.0255 14.55,-6.98 28.83,-14.58 43.91,-20.39 9.05,-3.49003 18.0848,-6.22101 27.2647,-9.37101 6.526,-1.1863 10.487,-1.67827 17.081,-2.249758 C 130.46,0.3523 135.30698,-0.02466674 136.8241,-0.01772283 130.6341,4.3222814 121.955,9.88477 116.745,14.5848 c -9.23,8.33 -19.539667,17.089965 -26.619667,27.449965 L 90.1153,42.0448 c -3.5,-0.325099 -7.38,-0.85 -11.07,-1.27 -17.121744,-1.640385 -34.09,-0.82 -50.91,2.84 z" style="display:inline"/>
    <path id="shape4" transform="matrix(0.72,0,0,0.72,597.99726,90.763496)" fill="#a29fdd" stroke="#000000" stroke-opacity="0" stroke-width="0" stroke-linecap="square" stroke-linejoin="bevel" d="M -1.0266444,42.053246 C 6.0533556,31.693246 16.29,22.9132 25.52,14.5832 30.73,9.88321 36.5683,5.9324 42.7583,1.5924 44.128,0.592478 45.0879,0.00923522 46.0079,0.00923522 61.4779,-0.0307648 73.28,-0.0567883 88.68,2.57321 c 20.76,3.54 40.59332,9.840204 59.29332,19.360204 26.86,13.67 49.65,32.36 68.83,55.69 17.33,21.07 29.99,44.609796 38.83,70.229796 6.27,18.17 10.46,36.9 13.24,55.96 2.9,19.91 4.71,39.88 5.55,59.98 0.22,5.39 0.38668,10.79979 0.60668,16.19979 1.16,28.28 1.51332,56.59021 0.72332,84.86021 -0.8,28.6 -0.19,57.19 -0.76,85.78 -21.68,-9.29 -43.43332,-18.58021 -65.13332,-27.84021 -6.21,-2.65 -12.55661,-5.97969 -18.79661,-8.56969 -0.05,-0.26 -0.0234,0.26969 -0.0734,0.01 0.26,-7.79 0.71,-15.58 0.76,-23.37 0.11,-18.47 0.24,-36.94 -0.72,-55.39 -0.5,-9.58 -0.27,-19.18 -0.73,-28.79 -0.83,-17.37 -2.01,-34.67 -4.08,-51.93 0.05,-0.2 0.1,-0.4 0.13,-0.61 26.28,-9.52 43.64,-28.12 52.17,-54.21 10.65,-32.56 4.97,-63.26 -15.37,-90.62 -20.12,-27.0598 -47.4,-40.9598 -81.49,-40.4698 -16.07,0.23 -30.58667,5.329676 -44.206671,13.619676 C 88.163319,77.003186 79.51999,70.44351 70.02999,65.22351 48.05,53.1532 23.633356,46.003246 -1.0266444,42.053246 Z" style="display:inline"/>
    <path id="shape5" transform="matrix(0.72,0,0,0.72,505.80874,119.455)" fill="#d96e44" stroke="#000000" stroke-opacity="0" stroke-width="0" stroke-linecap="square" stroke-linejoin="bevel" d="m 319.103,374.374 c 0.05,0.26 0.1,0.53 0.15,0.79 -0.06,19.22 -0.13,38.44 -0.2,57.67 -0.01,2.55 -0.08,5.1 -0.13,7.66 -7.54,-1.72 -14.2,-5.65 -21.23,-8.62 -20.61,-8.69 -41.1,-17.66 -61.6,-26.6 -12.66,-5.52 -25.38,-10.94 -37.87,-16.81 -14.94,-7.02 -29.87,-14.13 -44.46,-21.83 -16.83,-8.88 -33.11,-18.72 -48.89,-29.44 -16.9901,-11.54 -32.5601,-24.65 -46.4701,-39.65 -16.12,-17.38 -29.19,-36.86 -39.03,-58.54 -8.42,-18.57 -14.410764,-37.87269 -17.370764,-57.96269 -2.25000404,-15.28 -2.50613354,-30.66486 -1.43613354,-46.19486 1.15000404,-16.62 4.71510624,-32.66106 9.73506654,-48.321161 5.27,-16.45 13.197344,-31.705695 22.827344,-46.195695 9.08,-13.66 20.944323,-24.655691 31.894323,-36.5656912 16.82,-3.65999602 33.800164,-4.7499988 50.930264,-2.8399988 3.69,0.409996 6.73601,0.7317877 11.07,1.269996 -8.96,12.84 -17.47,25.94 -23.55,40.48 -7.4001,17.72 -12.740069,36.29056 -14.550069,55.46056 -0.532595,0.08745 -1.135904,0.129243 -1.636462,0.179427 -1.735063,0.280094 -2.276574,0.426079 -3.554763,0.659134 -28.1,6.620099 -48.740843,22.747369 -61.298806,48.630979 -11.05,23.17 -11.81,47.04 -3.9,70.88 9.8,29.53 29.1,51.1 58.2,63.15 17.95,7.43 36.5401,8.92 55.5601,5.01 7.86,-1.61 15.05,-5.07 22.32,-8.29 l 0.39,0.03 0.39,-0.04 c 17.32,17.52 37.38,31.45 58.35,44.12 22.27,13.46 45.5,25.1 69.11,35.98 11.96,5.53 24.15,10.64 36.25,15.93 z" style="display:inline"/>
    <path id="shape6" transform="matrix(0.72,0,0,0.72,569.83325,120.73221)" fill="#ddd9ca" stroke="#000000" stroke-opacity="0" stroke-width="0" stroke-linecap="square" stroke-linejoin="bevel" d="M 0,96.360557 C 1.81,77.180557 7.13,58.61 14.53,40.9 20.61,26.36 29.11,13.27 38.08,0.42 38.45,0.28 37.730069,0.55999694 38.100069,0.41999694 62.760069,4.3699969 87.24,11.53 109.23,23.59 c 9.5,5.21 18.04,10.283752 27.33,17.24 -0.02,0.22 -0.04,0.45 -0.08,0.67 -7.38,3.8 -13.22,9.41 -18.41,15.76 -0.53,0.34 -0.45869,-0.149961 -0.99604,0.35828 C 115.76575,57.331681 114.77,57.21 113.7,57.1 105.53,56.27 97.51,55.22 89.13,55.96 64.87,58.1 45.37,68.92 29.44,86.76 c -2.3,2.58 -5.584461,6.091206 -7.07,9.43 0,0 0.394711,0.03556 0,0 C 14.92,94.89 7.46,96.050557 0,96.360557 Z" style="display:inline"/>
    <path id="shape7" transform="matrix(0.72,0,0,0.72,617.67005,274.17141)" fill="#ddd9ca" stroke="#000000" stroke-opacity="0" stroke-width="0" stroke-linecap="square" stroke-linejoin="bevel" d="m 163.74,159.49 c -12.1,-5.3 -24.29,-10.4 -36.28,-15.93 C 103.85,132.67 80.62,121.04 58.35,107.58 37.38,94.9 17.32,80.98 0,63.46 11.84,55.2 22.77,46 30.8,33.79 c 9.59,0.09 19.15,0.42 28.65,-1.7 19.4,-4.31 35.66,-13.65 48.23,-29.17 17.36,3.67 34.46,2.86 51.28,-2.92 2.07,17.25 3.25,34.56 4.08,51.93 0.46,9.61 0.23,19.2 0.73,28.79 0.96,18.46 0.82,36.93 0.72,55.39 -0.04,7.8 -0.49,15.59 -0.75,23.38 z" style="display:inline"/>
    <path id="shape8" transform="matrix(0.72,0,0,0.72,668.10605,140.31439)" fill="#c7475a" stroke="#000000" stroke-opacity="0" stroke-width="0" stroke-linecap="square" stroke-linejoin="bevel" d="m 0,14.3125 c 0.04,-0.22 0.06,-0.44 0.08,-0.67 13.61,-8.27998 28.23,-13.39998 44.3,-13.62998 34.09,-0.49 61.37,13.40998 81.49,40.46998 20.34,27.35 26.01,58.06 15.37,90.6205 -8.53,26.09 -25.89,44.7 -52.18,54.21 -1.67,-2.14 -0.56,-4.66 -0.94,-6.98 -2.72,-16.7 -5.9,-33.29 -10.82,-49.51 C 71.92,111.093 64.95,94.0125 55.47,78.0425 47.65,64.8625 38.99,52.3325 28.59,40.9325 19.75,31.2525 10.35,22.3025 0,14.3125 Z" style="display:inline"/>
    <path id="shape9" transform="matrix(0.72,0,0,0.72,654.85805,150.61941)" fill="#d96e44" stroke="#000000" stroke-opacity="0" stroke-width="0" stroke-linecap="square" stroke-linejoin="bevel" d="M 18.48,-0.67002778 C 28.84,7.3299722 38.15,16.95 46.99,26.64 c 10.4,11.4 19.06,23.93 26.88,37.11 9.48,15.96 16.44,33.04 21.83,50.78 4.92,16.21 8.11,32.81 10.82,49.51 0.38,2.32 -0.73,4.84 0.94,6.98 -0.03,0.2 -0.08,0.41 -0.13,0.61 -16.82,5.78 -33.92,6.59 -51.28,2.92 0,-0.22 -0.02,-0.44 -0.06,-0.66 5.69,-4.54 8.82,-10.9 11.83,-17.22 C 74.94,141.7 78.18,126 76.97,109.28 76.38,101.14 75.23,93.2 72.78,85.49 67.02,67.34 57.09,51.75 42.8,39.14 34.36,31.7 25.09,25.47 14.44,21.35 9.63,19.49 4.0166842,17.571689 -1.01604,16.10828 4.16396,9.73828 11.1,3.1299722 18.48,-0.67002778 Z" style="display:inline"/>
    <path id="shape10" transform="matrix(0.72,0,0,0.72,515.34527,190.50108)" fill="#c7475a" stroke="#000000" stroke-opacity="0" stroke-width="0" stroke-linecap="square" stroke-linejoin="bevel" d="m 141.348,179.679 c -7.27,3.22 -14.46,6.67 -22.32,8.29 -19.02,3.91 -37.6102,2.42 -55.5602,-5.01 -29.1,-12.05 -48.4,-33.62 -58.20005,-63.15 -7.91,-23.8402 -7.15,-47.7102 3.9,-70.8802 C 21.7378,22.5688 42.5378,6.82878 70.6478,0.208783 71.847635,-0.06478143 74.16775,-0.49065154 75.67775,-0.5406515 73.76775,17.459366 73.5278,35.9388 76.1878,53.8688 c 4.3,28.94 14.19,55.8002 29.3402,80.7702 10.03,16.54 22.2,31.37 35.82,45.04 z" style="display:inline"/>
    <path id="shape11" transform="matrix(0.72,0,0,0.72,568.569,189.4811)" fill="#a29fdd" stroke="#000000" stroke-opacity="0" stroke-width="0" stroke-linecap="square" stroke-linejoin="bevel" d="m 67.4259,181.095 c -13.62,-13.68 -25.79,-28.51 -35.82,-45.04 C 16.4559,111.085 6.5659,84.2254 2.2659,55.2854 -0.394101,37.3554 -0.81909638,23.065421 1.0809046,5.0754513 1.4696959,2.4035795 1.6164859,1.8253886 1.7559028,0.87598739 2.2193312,0.83378113 16.6759,-0.594568 24.1159,0.715432 c -1.51,3.099998 -3.04,6.189998 -4.51,9.319968 -9.28,19.67 -11.51,40.21 -6.74,61.35 6.53,28.9596 22.48,51.3896 48.01,66.6796 11.68,7 24.24,11.83 38.07,12.56 0.02,0.26 0.04,0.53 0.05,0.8 -8.03,12.22 -18.96,21.41 -30.8,29.67 l -0.39,0.04 z" style="display:inline"/>
    <path id="shape12" transform="matrix(0.71991216,0,0,0.71992188,586.48844,160.84969)" fill="#99ddab" stroke="#000000" stroke-opacity="0" stroke-width="0" stroke-linecap="square" stroke-linejoin="bevel" d="m 150.828,159.637 c 0.04,0.22 0.06,0.44 0.06,0.66 -12.58,15.51 -28.84,24.85 -48.23,29.17 -9.4996,2.11 -19.0596,1.79 -28.6496,1.7 -0.01,-0.28 -0.03,-0.54 -0.05,-0.81 C 58.6817,156.184 -7.3377346,56.470481 -0.76227595,40.48567 0.73557839,37.023708 3.99829,33.6349 6.30857,31.0547 22.2405,13.2027 41.7329,2.39154 66.0059,0.251308 c 8.381,-0.74008 14.06902,-0.17380511 22.22992,0.65628289 0,0 5.981591,0.66779641 10.750732,2.45574051 C 141.71285,26.507651 149.498,159.437 150.828,159.637 Z" style="display:inline"/>
    <g id="Camada_2" transform="scale(0.72)" fill="none" style="display:inline"/>
    <path id="path1259" transform="matrix(0.72000002,0,0,0.72000002,639.10009,161.96661)" fill="#ce9e43" stroke="#000000" stroke-opacity="0" stroke-width="0" stroke-linecap="square" stroke-linejoin="bevel" d="m 25.902739,1.8116885 c 4.479845,1.5665517 5.593361,1.9083113 10.403361,3.7683113 10.66,4.11 19.934896,10.3059722 28.364896,17.7559722 14.29,12.61 24.224898,28.143287 29.984898,46.293287 2.45,7.71 3.590206,15.740741 4.180206,23.880741 1.2099,16.72 -2.04,32.41 -9.15,47.39 -3.01,6.32 -6.13,12.69 -11.83,17.22 -1.32,-0.2 -2.69,-0.26 -3.97,-0.62 -26.19,-7.31 -45.6,-23.33 -59.78,-46.25 C 8.34313,102.67 5.82872,94.6454 3.50223,86.0126 -1.76777,66.8426 -1.02392,47.82 5.28608,28.96 c 3.42,-10.2 9.643938,-19.8117204 15.583938,-28.61172045 0.275555,0.0569924 2.648324,0.56506843 5.032721,1.46340895 z" style="display:inline"/>
    <path id="path1261" transform="matrix(0.72000002,0,0,0.72000002,576.08906,189.72981)" fill="#5ccdd9" stroke="#000000" stroke-opacity="0" stroke-width="0" stroke-linecap="square" stroke-linejoin="bevel" d="m 94.3414,61.17 c 6.2396,15.02 9.2396,30.54 7.8596,46.86 -1.29,15.17 -5.2996,29.41 -13.6896,42.25 -13.83,-0.73 -26.39,-5.56 -38.07,-12.56 C 24.9114,122.43 8.96139,100 2.43139,71.04 -2.32861,49.9 -0.108603,29.37 9.17139,9.69 10.6414,6.57 12.1814,3.48 13.6814,0.37 c 0.502449,-0.009814 0.8534,-0.021853 1.51,0.0675013 C 21.657531,1.511666 28.3914,2.57 34.6814,4.96 c 23.84,9.05 42.58,24.11 54.93,46.73 1.09,1.98 4.52,8.98 4.73,9.48 z" style="display:inline"/>
  </g>
  <path d="M 102.658 169.133 L 97.071 161.18 C 96.382 161.229 95.839 161.253 95.444 161.253 L 89.045 161.253 L 89.045 169.133 L 85.345 169.133 L 85.345 143.238 L 95.444 143.238 C 98.797 143.238 101.437 144.039 103.36 145.641 C 105.284 147.246 106.245 149.454 106.245 152.263 C 106.245 154.262 105.752 155.964 104.767 157.37 C 103.78 158.776 102.374 159.799 100.548 160.439 L 106.689 169.133 L 102.658 169.133 Z M 95.333 158.108 C 97.675 158.108 99.463 157.603 100.697 156.592 C 101.93 155.58 102.547 154.138 102.547 152.263 C 102.547 150.389 101.93 148.959 100.697 147.972 C 99.463 146.962 97.675 146.457 95.333 146.457 L 89.045 146.457 L 89.045 158.108 L 95.333 158.108 Z" fill="#D96E44" style=""/>
  <path d="M 136.49 162.659 L 122.729 162.659 L 119.881 169.133 L 116.069 169.133 L 127.797 143.238 L 131.459 143.238 L 143.222 169.133 L 139.339 169.133 L 136.49 162.659 Z M 135.195 159.699 L 129.609 147.011 L 124.024 159.699 L 135.195 159.699 Z" fill="#D96E44" style=""/>
  <path d="M 154.854 143.238 L 165.767 143.238 C 168.504 143.238 170.933 143.781 173.054 144.867 C 175.174 145.95 176.815 147.479 177.974 149.454 C 179.157 151.401 179.749 153.644 179.749 156.185 C 179.749 158.725 179.157 160.983 177.974 162.954 C 176.815 164.902 175.174 166.42 173.054 167.505 C 170.933 168.59 168.504 169.133 165.767 169.133 L 154.854 169.133 L 154.854 143.238 Z M 165.544 165.914 C 167.639 165.914 169.477 165.507 171.056 164.693 C 172.659 163.879 173.893 162.745 174.756 161.289 C 175.618 159.811 176.051 158.108 176.051 156.185 C 176.051 154.262 175.618 152.572 174.756 151.117 C 173.893 149.638 172.659 148.49 171.056 147.676 C 169.477 146.863 167.639 146.457 165.544 146.457 L 158.553 146.457 L 158.553 165.914 L 165.544 165.914 Z" fill="#D96E44" style=""/>
  <path d="M 193.185 143.238 L 196.883 143.238 L 196.883 169.133 L 193.185 169.133 L 193.185 143.238 Z" fill="#D96E44" style=""/>
  <path d="M 224.094 169.429 C 221.48 169.429 219.125 168.861 217.029 167.727 C 214.931 166.568 213.28 164.977 212.071 162.954 C 210.888 160.933 210.296 158.677 210.296 156.185 C 210.296 153.694 210.888 151.438 212.071 149.415 C 213.28 147.394 214.931 145.816 217.029 144.68 C 219.125 143.522 221.48 142.941 224.094 142.941 C 226.684 142.941 229.025 143.522 231.122 144.68 C 233.219 145.816 234.858 147.394 236.042 149.415 C 237.226 151.414 237.818 153.67 237.818 156.185 C 237.818 158.701 237.226 160.969 236.042 162.992 C 234.858 164.989 233.219 166.568 231.122 167.727 C 229.025 168.861 226.684 169.429 224.094 169.429 Z M 224.094 166.136 C 225.992 166.136 227.694 165.704 229.2 164.842 C 230.727 163.977 231.924 162.795 232.787 161.289 C 233.675 159.761 234.12 158.06 234.12 156.185 C 234.12 154.31 233.675 152.623 232.787 151.117 C 231.924 149.588 230.727 148.392 229.2 147.529 C 227.694 146.666 225.992 146.234 224.094 146.234 C 222.194 146.234 220.468 146.666 218.916 147.529 C 217.386 148.392 216.177 149.588 215.291 151.117 C 214.426 152.623 213.994 154.31 213.994 156.185 C 213.994 158.06 214.426 159.761 215.291 161.289 C 216.177 162.795 217.386 163.977 218.916 164.842 C 220.468 165.704 222.194 166.136 224.094 166.136 Z" fill="#D96E44" style=""/>
  <path d="M 269.181 156.037 L 272.734 156.037 L 272.734 166.136 C 271.451 167.197 269.959 168.011 268.256 168.578 C 266.556 169.145 264.779 169.429 262.931 169.429 C 260.315 169.429 257.96 168.861 255.865 167.727 C 253.768 166.568 252.115 164.989 250.909 162.992 C 249.724 160.969 249.131 158.701 249.131 156.185 C 249.131 153.67 249.724 151.401 250.909 149.379 C 252.115 147.356 253.768 145.778 255.865 144.644 C 257.985 143.51 260.365 142.941 263.004 142.941 C 265.075 142.941 266.949 143.288 268.628 143.978 C 270.328 144.644 271.772 145.629 272.955 146.938 L 270.662 149.23 C 268.589 147.234 266.088 146.234 263.152 146.234 C 261.18 146.234 259.402 146.666 257.824 147.529 C 256.272 148.368 255.051 149.551 254.162 151.08 C 253.276 152.584 252.831 154.286 252.831 156.185 C 252.831 158.06 253.276 159.761 254.162 161.289 C 255.051 162.795 256.272 163.977 257.824 164.842 C 259.402 165.704 261.168 166.136 263.116 166.136 C 265.432 166.136 267.455 165.582 269.181 164.472 L 269.181 156.037 Z" fill="#D96E44" style=""/>
  <path d="M 304.083 162.659 L 290.322 162.659 L 287.474 169.133 L 283.662 169.133 L 295.39 143.238 L 299.052 143.238 L 310.814 169.133 L 306.932 169.133 L 304.083 162.659 Z M 302.787 159.699 L 297.202 147.011 L 291.616 159.699 L 302.787 159.699 Z" fill="#D96E44" style=""/>
  <path d="M 322.447 143.238 L 326.145 143.238 L 326.145 165.914 L 340.166 165.914 L 340.166 169.133 L 322.447 169.133 L 322.447 143.238 Z" fill="#D96E44" style=""/>
  <path d="M 370.972 165.914 L 370.972 169.133 L 352.179 169.133 L 352.179 143.238 L 370.453 143.238 L 370.453 146.457 L 355.878 146.457 L 355.878 154.41 L 368.862 154.41 L 368.862 157.555 L 355.878 157.555 L 355.878 165.914 L 370.972 165.914 Z" fill="#D96E44" style=""/>
  <path d="M 402.043 169.133 L 396.456 161.18 C 395.764 161.229 395.223 161.253 394.829 161.253 L 388.43 161.253 L 388.43 169.133 L 384.73 169.133 L 384.73 143.238 L 394.829 143.238 C 398.182 143.238 400.821 144.039 402.745 145.641 C 404.669 147.246 405.63 149.454 405.63 152.263 C 405.63 154.262 405.137 155.964 404.151 157.37 C 403.163 158.776 401.757 159.799 399.934 160.439 L 406.075 169.133 L 402.043 169.133 Z M 394.718 158.108 C 397.058 158.108 398.848 157.603 400.081 156.592 C 401.313 155.58 401.931 154.138 401.931 152.263 C 401.931 150.389 401.313 148.959 400.081 147.972 C 398.848 146.962 397.058 146.457 394.718 146.457 L 388.43 146.457 L 388.43 158.108 L 394.718 158.108 Z" fill="#D96E44" style=""/>
  <path d="M 419.375 143.238 L 423.076 143.238 L 423.076 169.133 L 419.375 169.133 L 419.375 143.238 Z" fill="#D96E44" style=""/>
  <path d="M 455.094 162.659 L 441.333 162.659 L 438.485 169.133 L 434.675 169.133 L 446.401 143.238 L 450.065 143.238 L 461.828 169.133 L 457.943 169.133 L 455.094 162.659 Z M 453.799 159.699 L 448.215 147.011 L 442.629 159.699 L 453.799 159.699 Z" fill="#D96E44" style=""/>
</svg>