<svg width="143" height="11" viewBox="0 0 143 11" fill="none" xmlns="http://www.w3.org/2000/svg">
<path d="M7.022 10L4.908 6.99001C4.64667 7.00868 4.44133 7.01801 4.292 7.01801H1.87V10H0.470001V0.200012H4.292C5.56133 0.200012 6.56 0.503345 7.288 1.11001C8.016 1.71668 8.38 2.55201 8.38 3.61601C8.38 4.37201 8.19334 5.01601 7.82 5.54801C7.44667 6.08001 6.91467 6.46735 6.224 6.71001L8.548 10H7.022ZM4.25 5.82801C5.13667 5.82801 5.81333 5.63668 6.28 5.25401C6.74667 4.87135 6.98 4.32535 6.98 3.61601C6.98 2.90668 6.74667 2.36535 6.28 1.99201C5.81333 1.60935 5.13667 1.41801 4.25 1.41801H1.87V5.82801H4.25Z" fill="#D96E44"/>
<path d="M19.8259 7.55001H14.6179L13.5399 10H12.0979L16.5359 0.200012H17.9219L22.3739 10H20.9039L19.8259 7.55001ZM19.3359 6.43001L17.2219 1.62801L15.1079 6.43001H19.3359Z" fill="#D96E44"/>
<path d="M26.7758 0.200012H30.9058C31.9418 0.200012 32.8611 0.405346 33.6638 0.816013C34.4665 1.22668 35.0871 1.80535 35.5258 2.55201C35.9738 3.28935 36.1978 4.13868 36.1978 5.10001C36.1978 6.06135 35.9738 6.91535 35.5258 7.66201C35.0871 8.39935 34.4665 8.97335 33.6638 9.38401C32.8611 9.79468 31.9418 10 30.9058 10H26.7758V0.200012ZM30.8218 8.78201C31.6151 8.78201 32.3105 8.62801 32.9078 8.32001C33.5145 8.01201 33.9811 7.58268 34.3078 7.03201C34.6345 6.47201 34.7978 5.82801 34.7978 5.10001C34.7978 4.37201 34.6345 3.73268 34.3078 3.18201C33.9811 2.62201 33.5145 2.18801 32.9078 1.88001C32.3105 1.57201 31.6151 1.41801 30.8218 1.41801H28.1758V8.78201H30.8218Z" fill="#D96E44"/>
<path d="M41.2822 0.200012H42.6822V10H41.2822V0.200012Z" fill="#D96E44"/>
<path d="M52.9802 10.112C51.9908 10.112 51.0995 9.89735 50.3062 9.46801C49.5128 9.02935 48.8875 8.42735 48.4302 7.66201C47.9822 6.89668 47.7582 6.04268 47.7582 5.10001C47.7582 4.15735 47.9822 3.30335 48.4302 2.53801C48.8875 1.77268 49.5128 1.17535 50.3062 0.746013C51.0995 0.307346 51.9908 0.0880127 52.9802 0.0880127C53.9602 0.0880127 54.8468 0.307346 55.6402 0.746013C56.4335 1.17535 57.0542 1.77268 57.5022 2.53801C57.9502 3.29401 58.1742 4.14801 58.1742 5.10001C58.1742 6.05201 57.9502 6.91068 57.5022 7.67601C57.0542 8.43201 56.4335 9.02935 55.6402 9.46801C54.8468 9.89735 53.9602 10.112 52.9802 10.112ZM52.9802 8.86601C53.6988 8.86601 54.3428 8.70268 54.9122 8.37601C55.4908 8.04935 55.9435 7.60135 56.2702 7.03201C56.6062 6.45335 56.7742 5.80935 56.7742 5.10001C56.7742 4.39068 56.6062 3.75135 56.2702 3.18201C55.9435 2.60335 55.4908 2.15068 54.9122 1.82401C54.3428 1.49735 53.6988 1.33401 52.9802 1.33401C52.2615 1.33401 51.6082 1.49735 51.0202 1.82401C50.4415 2.15068 49.9842 2.60335 49.6482 3.18201C49.3215 3.75135 49.1582 4.39068 49.1582 5.10001C49.1582 5.80935 49.3215 6.45335 49.6482 7.03201C49.9842 7.60135 50.4415 8.04935 51.0202 8.37601C51.6082 8.70268 52.2615 8.86601 52.9802 8.86601Z" fill="#D96E44"/>
<path d="M70.044 5.04401H71.388V8.86601C70.9027 9.26735 70.338 9.57535 69.694 9.79001C69.05 10.0047 68.378 10.112 67.678 10.112C66.6887 10.112 65.7973 9.89735 65.004 9.46801C64.2106 9.02935 63.5853 8.43201 63.128 7.67601C62.68 6.91068 62.456 6.05201 62.456 5.10001C62.456 4.14801 62.68 3.28935 63.128 2.52401C63.5853 1.75868 64.2106 1.16135 65.004 0.732012C65.8066 0.302679 66.7073 0.0880127 67.706 0.0880127C68.49 0.0880127 69.1993 0.218679 69.834 0.480013C70.478 0.732012 71.024 1.10535 71.472 1.60001L70.604 2.46801C69.82 1.71201 68.8727 1.33401 67.762 1.33401C67.0153 1.33401 66.3433 1.49735 65.746 1.82401C65.158 2.14135 64.696 2.58935 64.36 3.16801C64.024 3.73735 63.856 4.38135 63.856 5.10001C63.856 5.80935 64.024 6.45335 64.36 7.03201C64.696 7.60135 65.158 8.04935 65.746 8.37601C66.3433 8.70268 67.0107 8.86601 67.748 8.86601C68.6253 8.86601 69.3907 8.65601 70.044 8.23601V5.04401Z" fill="#D96E44"/>
<path d="M83.2524 7.55001H78.0444L76.9664 10H75.5244L79.9624 0.200012H81.3484L85.8004 10H84.3304L83.2524 7.55001ZM82.7624 6.43001L80.6484 1.62801L78.5344 6.43001H82.7624Z" fill="#D96E44"/>
<path d="M90.2023 0.200012H91.6023V8.78201H96.9083V10H90.2023V0.200012Z" fill="#D96E44"/>
<path d="M108.567 8.78201V10H101.455V0.200012H108.371V1.41801H102.855V4.42801H107.769V5.61801H102.855V8.78201H108.567Z" fill="#D96E44"/>
<path d="M120.326 10L118.212 6.99001C117.95 7.00868 117.745 7.01801 117.596 7.01801H115.174V10H113.774V0.200012H117.596C118.865 0.200012 119.864 0.503345 120.592 1.11001C121.32 1.71668 121.684 2.55201 121.684 3.61601C121.684 4.37201 121.497 5.01601 121.124 5.54801C120.75 6.08001 120.218 6.46735 119.528 6.71001L121.852 10H120.326ZM117.554 5.82801C118.44 5.82801 119.117 5.63668 119.584 5.25401C120.05 4.87135 120.284 4.32535 120.284 3.61601C120.284 2.90668 120.05 2.36535 119.584 1.99201C119.117 1.60935 118.44 1.41801 117.554 1.41801H115.174V5.82801H117.554Z" fill="#D96E44"/>
<path d="M126.886 0.200012H128.286V10H126.886V0.200012Z" fill="#D96E44"/>
<path d="M140.404 7.55001H135.196L134.118 10H132.676L137.114 0.200012H138.5L142.952 10H141.482L140.404 7.55001ZM139.914 6.43001L137.8 1.62801L135.686 6.43001H139.914Z" fill="#D96E44"/>
</svg>
