<svg width="57" height="152" viewBox="0 0 57 152" fill="none" xmlns="http://www.w3.org/2000/svg">
<path fill-rule="evenodd" clip-rule="evenodd" d="M32.4387 124.857C32.7788 124.051 33.3791 123.337 34.0642 122.75C35.8625 121.21 37 118.936 37 116.4C37 111.761 33.1944 108 28.5 108C23.8056 108 20 111.761 20 116.4C20 118.936 21.1375 121.21 22.9358 122.75C23.6209 123.337 24.2212 124.051 24.5613 124.857C24.7885 125.001 25.0241 125.133 25.2673 125.252C26.2785 125.747 27.3923 126.003 28.5207 126C29.6492 125.997 30.7615 125.735 31.7699 125.234C31.9999 125.12 32.2231 124.994 32.4387 124.857ZM31.285 111.445C31.3717 111.125 31.7047 110.935 32.0286 111.02C34.2958 111.621 35.6413 113.924 35.0338 116.164C34.947 116.484 34.6141 116.674 34.2902 116.589C33.9663 116.503 33.7741 116.174 33.8608 115.854C34.2948 114.253 33.3337 112.608 31.7143 112.18C31.3904 112.094 31.1982 111.765 31.285 111.445Z" fill="#9A7F5D"/>
<path d="M32.1429 126.389C31.0125 126.919 29.7769 127.196 28.5242 127.2C27.2554 127.204 26.0025 126.926 24.8571 126.389V128.4C24.8571 130.388 26.4881 132 28.5 132C30.5119 132 32.1429 130.388 32.1429 128.4V126.389Z" fill="#9A7F5D"/>
<path fill-rule="evenodd" clip-rule="evenodd" d="M32.4387 124.857C32.7788 124.051 33.3791 123.337 34.0642 122.75C35.8625 121.21 37 118.936 37 116.4C37 111.761 33.1944 108 28.5 108C23.8056 108 20 111.761 20 116.4C20 118.936 21.1375 121.21 22.9358 122.75C23.6209 123.337 24.2212 124.051 24.5613 124.857C24.7885 125.001 25.0241 125.133 25.2673 125.252C26.2785 125.747 27.3923 126.003 28.5207 126C29.6492 125.997 30.7615 125.735 31.7699 125.234C31.9999 125.12 32.2231 124.994 32.4387 124.857ZM31.285 111.445C31.3717 111.125 31.7047 110.935 32.0286 111.02C34.2958 111.621 35.6413 113.924 35.0338 116.164C34.947 116.484 34.6141 116.674 34.2902 116.589C33.9663 116.503 33.7741 116.174 33.8608 115.854C34.2948 114.253 33.3337 112.608 31.7143 112.18C31.3904 112.094 31.1982 111.765 31.285 111.445Z" fill="#C7475A"/>
<path fill-rule="evenodd" clip-rule="evenodd" d="M32.4387 36.8572C32.7788 36.0513 33.3791 35.3371 34.0642 34.7502C35.8625 33.21 37 30.9363 37 28.4C37 23.7608 33.1944 20 28.5 20C23.8056 20 20 23.7608 20 28.4C20 30.9363 21.1375 33.21 22.9358 34.7502C23.6209 35.3371 24.2212 36.0513 24.5613 36.8572C24.7885 37.0014 25.0241 37.1335 25.2673 37.2524C26.2785 37.7472 27.3923 38.0031 28.5207 38C29.6492 37.9968 30.7615 37.7346 31.7699 37.2341C31.9999 37.1199 32.2231 36.9941 32.4387 36.8572ZM31.285 23.4447C31.3717 23.1246 31.7047 22.9347 32.0286 23.0204C34.2958 23.6208 35.6413 25.9238 35.0338 28.1644C34.947 28.4844 34.6141 28.6744 34.2902 28.5886C33.9663 28.5029 33.7741 28.1739 33.8608 27.8538C34.2948 26.2534 33.3337 24.6084 31.7143 24.1795C31.3904 24.0938 31.1982 23.7648 31.285 23.4447Z" fill="#9A7F5D"/>
<path d="M32.1429 38.3895C31.0125 38.9193 29.7769 39.1964 28.5242 39.2C27.2554 39.2035 26.0025 38.9263 24.8571 38.3895V40.4C24.8571 42.3882 26.4881 44 28.5 44C30.5119 44 32.1429 42.3882 32.1429 40.4V38.3895Z" fill="#9A7F5D"/>
<path fill-rule="evenodd" clip-rule="evenodd" d="M32.4387 36.8572C32.7788 36.0513 33.3791 35.3371 34.0642 34.7502C35.8625 33.21 37 30.9363 37 28.4C37 23.7608 33.1944 20 28.5 20C23.8056 20 20 23.7608 20 28.4C20 30.9363 21.1375 33.21 22.9358 34.7502C23.6209 35.3371 24.2212 36.0513 24.5613 36.8572C24.7885 37.0014 25.0241 37.1335 25.2673 37.2524C26.2785 37.7472 27.3923 38.0031 28.5207 38C29.6492 37.9968 30.7615 37.7346 31.7699 37.2341C31.9999 37.1199 32.2231 36.9941 32.4387 36.8572ZM31.285 23.4447C31.3717 23.1246 31.7047 22.9347 32.0286 23.0204C34.2958 23.6208 35.6413 25.9238 35.0338 28.1644C34.947 28.4844 34.6141 28.6744 34.2902 28.5886C33.9663 28.5029 33.7741 28.1739 33.8608 27.8538C34.2948 26.2534 33.3337 24.6084 31.7143 24.1795C31.3904 24.0938 31.1982 23.7648 31.285 23.4447Z" fill="#5F665D"/>
<path fill-rule="evenodd" clip-rule="evenodd" d="M32.4387 80.8572C32.7788 80.0513 33.3791 79.3371 34.0642 78.7502C35.8625 77.21 37 74.9363 37 72.4C37 67.7608 33.1944 64 28.5 64C23.8056 64 20 67.7608 20 72.4C20 74.9363 21.1375 77.21 22.9358 78.7502C23.6209 79.3371 24.2212 80.0513 24.5613 80.8572C24.7885 81.0014 25.0241 81.1335 25.2673 81.2524C26.2785 81.7472 27.3923 82.0031 28.5207 82C29.6492 81.9968 30.7615 81.7346 31.7699 81.2341C31.9999 81.1199 32.2231 80.9941 32.4387 80.8572ZM31.285 67.4447C31.3717 67.1246 31.7047 66.9347 32.0286 67.0204C34.2958 67.6208 35.6413 69.9238 35.0338 72.1644C34.947 72.4844 34.6141 72.6744 34.2902 72.5886C33.9663 72.5029 33.7741 72.1739 33.8608 71.8538C34.2948 70.2534 33.3337 68.6084 31.7143 68.1795C31.3904 68.0938 31.1982 67.7648 31.285 67.4447Z" fill="#9A7F5D"/>
<path d="M32.1429 82.3895C31.0125 82.9193 29.7769 83.1964 28.5242 83.2C27.2554 83.2035 26.0025 82.9263 24.8571 82.3895V84.4C24.8571 86.3882 26.4881 88 28.5 88C30.5119 88 32.1429 86.3882 32.1429 84.4V82.3895Z" fill="#9A7F5D"/>
<path fill-rule="evenodd" clip-rule="evenodd" d="M32.4387 80.8572C32.7788 80.0513 33.3791 79.3371 34.0642 78.7502C35.8625 77.21 37 74.9363 37 72.4C37 67.7608 33.1944 64 28.5 64C23.8056 64 20 67.7608 20 72.4C20 74.9363 21.1375 77.21 22.9358 78.7502C23.6209 79.3371 24.2212 80.0513 24.5613 80.8572C24.7885 81.0014 25.0241 81.1335 25.2673 81.2524C26.2785 81.7472 27.3923 82.0031 28.5207 82C29.6492 81.9968 30.7615 81.7346 31.7699 81.2341C31.9999 81.1199 32.2231 80.9941 32.4387 80.8572ZM31.285 67.4447C31.3717 67.1246 31.7047 66.9347 32.0286 67.0204C34.2958 67.6208 35.6413 69.9238 35.0338 72.1644C34.947 72.4844 34.6141 72.6744 34.2902 72.5886C33.9663 72.5029 33.7741 72.1739 33.8608 71.8538C34.2948 70.2534 33.3337 68.6084 31.7143 68.1795C31.3904 68.0938 31.1982 67.7648 31.285 67.4447Z" fill="#E2DD93"/>
<rect x="0.5" y="0.5" width="56" height="151" rx="4.5" stroke="#7B61FF" stroke-dasharray="10 5"/>
</svg>
