<svg width="17" height="24" viewBox="0 0 17 24" fill="none" xmlns="http://www.w3.org/2000/svg">
<path fill-rule="evenodd" clip-rule="evenodd" d="M12.4387 16.8572C12.7788 16.0513 13.3791 15.3371 14.0642 14.7502C15.8625 13.21 17 10.9363 17 8.4C17 3.76081 13.1944 0 8.5 0C3.80558 0 0 3.76081 0 8.4C0 10.9363 1.13746 13.21 2.93575 14.7502C3.6209 15.3371 4.22123 16.0513 4.56133 16.8572C4.78847 17.0014 5.0241 17.1335 5.26725 17.2524C6.27853 17.7472 7.3923 18.0031 8.52075 18C9.64919 17.9968 10.7615 17.7346 11.7699 17.2341C11.9999 17.1199 12.2231 16.9941 12.4387 16.8572ZM11.285 3.4447C11.3717 3.12462 11.7047 2.93467 12.0286 3.02043C14.2958 3.62079 15.6413 5.9238 15.0338 8.16436C14.947 8.48444 14.6141 8.67439 14.2902 8.58862C13.9663 8.50286 13.7741 8.17386 13.8608 7.85378C14.2948 6.25338 13.3337 4.60837 11.7143 4.17954C11.3904 4.09378 11.1982 3.76477 11.285 3.4447Z" fill="#9A7F5D"/>
<path d="M12.1429 18.3895C11.0125 18.9193 9.77688 19.1964 8.52421 19.2C7.25538 19.2035 6.00245 18.9263 4.85714 18.3895V20.4C4.85714 22.3882 6.48811 24 8.5 24C10.5119 24 12.1429 22.3882 12.1429 20.4V18.3895Z" fill="#9A7F5D"/>
<path fill-rule="evenodd" clip-rule="evenodd" d="M12.4387 16.8572C12.7788 16.0513 13.3791 15.3371 14.0642 14.7502C15.8625 13.21 17 10.9363 17 8.4C17 3.76081 13.1944 0 8.5 0C3.80558 0 0 3.76081 0 8.4C0 10.9363 1.13746 13.21 2.93575 14.7502C3.6209 15.3371 4.22123 16.0513 4.56133 16.8572C4.78847 17.0014 5.0241 17.1335 5.26725 17.2524C6.27853 17.7472 7.3923 18.0031 8.52075 18C9.64919 17.9968 10.7615 17.7346 11.7699 17.2341C11.9999 17.1199 12.2231 16.9941 12.4387 16.8572ZM11.285 3.4447C11.3717 3.12462 11.7047 2.93467 12.0286 3.02043C14.2958 3.62079 15.6413 5.9238 15.0338 8.16436C14.947 8.48444 14.6141 8.67439 14.2902 8.58862C13.9663 8.50286 13.7741 8.17386 13.8608 7.85378C14.2948 6.25338 13.3337 4.60837 11.7143 4.17954C11.3904 4.09378 11.1982 3.76477 11.285 3.4447Z" fill="#C7475A"/>
</svg>
